{"title":"Red.Line.2013.WEBDL.1080p.CINEMANIA.mkv","uid":8885009,"size":3742119144,"categoryP":"video","categoryS":"hd___movies","magnet":"?xt=urn:btih:a0db35551222f7145e4f96592f5e201dcac56087&amp;dn=Red.Line.2013.WEBDL.1080p.CINEMANIA.mkv&amp;tr=udp%3A%2F%2Ftracker.openbittorrent.com%3A80&amp;tr=udp%3A%2F%2Fopen.demonii.com%3A1337&amp;tr=udp%3A%2F%2Ftracker.coppersurfer.tk%3A6969&amp;tr=udp%3A%2F%2Fexodus.desync.com%3A6969","seeders":1,"leechers":0,"uploader":"ABSTAIN","files":1,"time":1378430951,"description":"[img]http://cinemania.cc/thumbnail.php?6070.jpg[/img]\n\n &lt;a href=&quot;\nhttp://www.imdb.com/title/tt1930458/&quot; rel=&quot;nofollow&quot; target=&quot;_NEW&quot;&gt;\nhttp://www.imdb.com/title/tt1930458/&lt;/a&gt;\n\nTerrified commuters are on the ride of their lives when terrorists send a subway train speeding out of control during rush hour. With the saboteur among them, a group of citizens are now trapped underground and in a race against time if they hope to see daylight again. Full of fast-paced action and suspense, Redline is a thriller that will have you holding on for safety\n\nDirector: Robert Kirbyson\nWriters: Robert Kirbyson, Tara Stone\nStars: Nicole Gale Anderson, John Billingsley, Kunal Sharma\n\nGenres: Thriller\n\nGeneral \nRed.Line.2013.WEBDL.1080p.CINEMANIA.mkv \nFormat : Matroska \nFormat version : Version 4 / Version 2 \nFile size : 3.49 GiB \nDuration : 1h 26mn \nOverall bit rate : 5 739 Kbps \nMovie name : CINEMANIA.CC \nEncoded date : UTC 2013-09-05 22:10:42 \nWriting application : mkvmerge v6.3.0 ('You can't stop me!') built on Jun 28 2013 20:09:41 \nWriting library : libebml v1.3.0 + libmatroska v1.4.0 \n\nVideo \nID : 1 \nFormat : AVC \nFormat/Info : Advanced Video Codec \nFormat profile : &lt;a class=&quot;__cf_email__&quot; href=&quot;/cdn-cgi/l/email-protection&quot; data-cfemail=&quot;3078595758707c041e00&quot;&gt;[email&amp;#160;protected]&lt;/a&gt;&lt;script cf-hash='f9e31' type=&quot;text/javascript&quot;&gt;\n/* &lt;![CDATA[ */!function(){try{var t=&quot;currentScript&quot;in document?document.currentScript:function(){for(var t=document.getElementsByTagName(&quot;script&quot;),e=t.length;e--;)if(t[e].getAttribute(&quot;cf-hash&quot;))return t[e]}();if(t&amp;&amp;t.previousSibling){var e,r,n,i,c=t.previousSibling,a=c.getAttribute(&quot;data-cfemail&quot;);if(a){for(e=&quot;&quot;,r=parseInt(a.substr(0,2),16),n=2;a.length-n;n+=2)i=parseInt(a.substr(n,2),16)^r,e+=String.fromCharCode(i);e=document.createTextNode(e),c.parentNode.replaceChild(e,c)}}}catch(u){}}();/* ]]&gt; */&lt;/script&gt; \nFormat settings, CABAC : Yes \nFormat settings, ReFrames : 4 frames \nFormat settings, GOP : N=2 \nCodec ID : V_MPEG4/ISO/AVC \nDuration : 1h 26mn \nBit rate : 5 049 Kbps \nWidth : 1 920 pixels \nHeight : 1 080 pixels \nDisplay aspect ratio : 16:9 \nFrame rate mode : Constant \nFrame rate : 23.976 fps \nColor space : YUV \nChroma subsampling : 4:2:0 \nBit depth : 8 bits \nScan type : Progressive \nBits/(Pixel*Frame) : 0.102 \nStream size : 3.07 GiB (88%) \nTitle : CINEMANIA.CC \nLanguage : English \nDefault : Yes \nForced : No \nColor primaries : BT.709 \nTransfer characteristics : BT.709 \nMatrix coefficients : BT.709 \n\nAudio #1 \nID : 2 \nFormat : AC-3 \nFormat/Info : Audio Coding 3 \nMode extension : CM (complete main) \nFormat settings, Endianness : Big \nCodec ID : A_AC3 \nDuration : 1h 26mn \nBit rate mode : Constant \nBit rate : 192 Kbps \nChannel(s) : 2 channels \nChannel positions : Front: L R \nSampling rate : 48.0 KHz \nBit depth : 16 bits \nCompression mode : Lossy \nStream size : 119 MiB (3%) \nTitle : ???+ \nLanguage : Russian \nDefault : Yes \nForced : Yes \n\nAudio #2 \nID : 3 \nFormat : AC-3 \nFormat/Info : Audio Coding 3 \nMode extension : CM (complete main) \nFormat settings, Endianness : Big \nCodec ID : A_AC3 \nDuration : 1h 26mn \nBit rate mode : Constant \nBit rate : 384 Kbps \nChannel(s) : 6 channels \nChannel positions : Front: L C R, Side: L R, LFE \nSampling rate : 48.0 KHz \nBit depth : 16 bits \nCompression mode : Lossy \nStream size : 239 MiB (7%) \nLanguage : English \nDefault : No \nForced : No \n\nText \nID : 4 \nFormat : UTF-8 \nCodec ID : S_TEXT/UTF8 \nCodec ID/Info : UTF-8 Plain Text \nLanguage : English \nDefault : No \nForced : No \n\nMenu \n00:00:00.000 : en:On The Redline \n00:12:48.000 : en:Go Get Help \n00:20:33.000 : en:Here For a While \n00:27:29.000 : en:A Terrorist \n00:35:52.000 : en:isarm Bomb \n00:44:06.000 : en:The Truth \n00:54:53.000 : en:Where's The Gun? \n01:04:50.000 : en:Bring it Here \n01:14:19.000 : en:Take a Gamble \n01:23:06.000 : en:Credits ","torrent":{"xt":"urn:btih:a0db35551222f7145e4f96592f5e201dcac56087","amp;dn":"Red.Line.2013.WEBDL.1080p.CINEMANIA.mkv","amp;tr":["udp%3A%2F%2Ftracker.openbittorrent.com%3A80","udp%3A%2F%2Fopen.demonii.com%3A1337","udp%3A%2F%2Ftracker.coppersurfer.tk%3A6969","udp%3A%2F%2Fexodus.desync.com%3A6969"],"infoHash":"a0db35551222f7145e4f96592f5e201dcac56087","infoHashBuffer":{"type":"Buffer","data":[160,219,53,85,18,34,247,20,94,79,150,89,47,94,32,29,202,197,96,135]},"announce":[],"urlList":[]}}